<svg width="1024" height="1024" viewBox="0 0 1024 1024" fill="none" xmlns="http://www.w3.org/2000/svg">
<g clip-path="url(#clip0_579_82)">
<path d="M814.218 332.377C815.603 333.063 816.131 333.694 817.644 333.224C819.712 330.611 819.17 326.941 820.354 323.921C826.848 307.359 837.798 294.441 856.44 292.397C857.105 292.32 857.771 292.259 858.438 292.215C859.106 292.171 859.775 292.144 860.443 292.133C861.113 292.122 861.782 292.129 862.45 292.152C863.119 292.175 863.787 292.214 864.453 292.271C865.12 292.327 865.785 292.4 866.447 292.49C867.111 292.579 867.771 292.685 868.428 292.808C869.086 292.931 869.741 293.07 870.391 293.225C871.042 293.38 871.689 293.552 872.331 293.74C872.973 293.927 873.61 294.131 874.242 294.351C874.874 294.57 875.5 294.806 876.12 295.057C876.741 295.308 877.355 295.574 877.961 295.855C878.568 296.137 879.167 296.434 879.759 296.745C880.351 297.057 880.935 297.383 881.511 297.724C882.087 298.065 882.654 298.42 883.211 298.789C883.769 299.158 884.318 299.541 884.857 299.938C885.396 300.335 885.924 300.745 886.442 301.168C888.213 302.629 889.86 304.218 891.382 305.935C892.905 307.652 894.285 309.478 895.523 311.411C903.205 306.65 910.063 303.084 919.405 305.389C926.533 307.147 932.307 311.788 935.999 318.052C939.943 324.744 940.724 331.686 940.872 339.296C947.715 337.426 954.895 336.062 961.434 339.797C966.295 342.574 970.112 347.542 971.49 352.974C972.522 357.045 972.197 361.67 970.015 365.327C968.603 367.694 966.416 369.342 963.732 369.969C956.719 371.606 940.561 370.625 932.805 370.616C922.912 370.604 912.203 371.31 902.387 370.254C895.783 369.003 881.729 369.992 874.225 369.999L825.569 370.023C815.145 370.043 804.657 370.301 794.243 369.858C793.041 369.104 791.783 368.349 790.732 367.39C787.372 364.325 785.486 359.706 785.542 355.188C785.621 348.878 788.873 342.623 793.427 338.363C799.511 332.673 806.326 332.046 814.218 332.377Z" fill="#0424B1"/>
<path d="M127.906 743.804C131.495 732.537 137.498 723.396 147.87 717.324C148.647 716.865 149.435 716.426 150.234 716.006C151.032 715.586 151.841 715.186 152.66 714.806C153.478 714.426 154.306 714.067 155.143 713.728C155.979 713.389 156.824 713.072 157.676 712.775C158.528 712.478 159.387 712.202 160.253 711.948C161.119 711.693 161.99 711.46 162.868 711.249C163.746 711.038 164.628 710.849 165.515 710.682C166.401 710.514 167.292 710.368 168.186 710.245C169.08 710.122 169.976 710.021 170.876 709.942C171.775 709.863 172.675 709.807 173.577 709.773C174.479 709.739 175.381 709.727 176.284 709.737C177.186 709.748 178.087 709.781 178.989 709.836C179.889 709.891 180.788 709.969 181.685 710.069C182.582 710.168 183.476 710.29 184.367 710.434C185.258 710.579 186.145 710.745 187.028 710.933C187.91 711.121 188.788 711.331 189.66 711.562C208.277 716.556 219.229 728.718 228.559 744.826C232.591 742.197 236.629 740.256 241.369 739.364C249.597 737.815 257.598 739.498 264.467 744.337C273.164 750.465 278.086 759.891 279.819 770.228C285.978 767.059 291.573 766.188 298.428 765.93L302.604 765.976C308.193 767.295 312.655 769.482 317.432 772.663C324.385 780.324 329.413 788.478 328.726 799.237C328.699 799.701 328.661 800.164 328.611 800.625C328.561 801.087 328.5 801.547 328.428 802.006C328.354 802.465 328.27 802.921 328.175 803.376C328.079 803.831 327.973 804.282 327.855 804.731C327.737 805.18 327.607 805.626 327.467 806.069C327.327 806.512 327.175 806.951 327.013 807.386C326.851 807.821 326.678 808.252 326.494 808.679C326.31 809.106 326.116 809.527 325.911 809.944C325.706 810.361 325.491 810.773 325.266 811.179C325.04 811.585 324.805 811.985 324.56 812.38C324.314 812.774 324.059 813.162 323.795 813.544C323.53 813.925 323.256 814.3 322.973 814.668C322.689 815.036 322.397 815.397 322.096 815.75C321.794 816.103 321.484 816.449 321.166 816.787C320.847 817.125 320.52 817.455 320.186 817.777C319.85 818.098 319.507 818.411 319.157 818.716C316.626 820.888 313.27 823.194 310.092 824.211C295.533 823.941 280.938 824.21 266.376 824.255C260.233 824.274 253.17 823.497 247.158 824.344C183.992 823.644 120.769 825.507 57.6 825.723L57.2855 824.94C52.9111 813.743 52.8079 802.061 57.8395 791.061C62.2859 781.34 70.2342 773.269 80.3756 769.63C90.0352 766.163 98.6279 767.498 107.789 771.74C106.871 769.698 106.063 767.675 105.946 765.411C105.654 759.783 107.936 754.062 111.808 750C116.298 745.289 121.657 743.979 127.906 743.804Z" fill="#0424B1"/>
<path d="M661.408 848.806C662.928 830.11 669.259 815.519 683.693 803.148C696.474 792.194 712.523 787.212 729.257 788.516C730.309 788.593 731.358 788.696 732.406 788.825C733.453 788.954 734.496 789.108 735.536 789.288C736.575 789.469 737.609 789.675 738.639 789.906C739.668 790.137 740.691 790.394 741.708 790.675C742.725 790.957 743.735 791.264 744.736 791.595C745.737 791.926 746.73 792.282 747.714 792.663C748.698 793.044 749.672 793.448 750.636 793.876C751.6 794.305 752.553 794.757 753.495 795.232C754.437 795.708 755.366 796.207 756.284 796.728C757.2 797.249 758.104 797.793 758.995 798.359C759.885 798.925 760.761 799.513 761.623 800.122C762.484 800.731 763.33 801.36 764.16 802.011C764.99 802.662 765.804 803.333 766.602 804.024C767.398 804.715 768.178 805.426 768.941 806.155C769.703 806.884 770.446 807.632 771.172 808.398C771.897 809.165 772.603 809.948 773.29 810.749C779.509 818.146 784.193 826.368 787.689 835.366C798.115 826.311 809.078 821.05 823.216 822.034C834.066 822.789 844.439 827.622 851.506 835.972C856.627 842.023 859.539 849.185 860.906 856.944C870.811 854.716 879.639 855.998 888.294 861.449C888.914 861.838 889.524 862.241 890.124 862.66C890.724 863.079 891.313 863.512 891.893 863.959C892.471 864.407 893.038 864.869 893.594 865.345C894.15 865.82 894.694 866.309 895.226 866.812C895.758 867.315 896.277 867.83 896.783 868.359C897.289 868.887 897.782 869.427 898.262 869.98C898.741 870.533 899.207 871.097 899.659 871.672C900.11 872.248 900.547 872.834 900.971 873.431C901.393 874.028 901.801 874.636 902.194 875.253C902.586 875.87 902.964 876.497 903.326 877.133C903.687 877.769 904.033 878.414 904.363 879.067C904.693 879.72 905.006 880.381 905.304 881.05C905.601 881.718 905.882 882.393 906.146 883.076C906.41 883.759 906.657 884.447 906.887 885.142C907.117 885.837 907.33 886.536 907.525 887.241C907.72 887.946 907.898 888.656 908.059 889.37C910.341 899.705 908.922 910.997 904.501 920.572L707.902 920.951L642.481 920.838C631.713 920.793 620.543 921.335 609.819 920.512C607.315 920.32 605.133 919.896 603.27 918.109C601.839 916.736 601.029 914.916 600.176 913.159C594.729 897.212 594.664 880.665 602.142 865.343C607.71 853.934 615.898 845.602 627.992 841.457C638.316 838.859 647.12 839.891 656.321 845.38C658.079 846.429 659.748 847.611 661.408 848.806Z" fill="#1380DD"/>
<path d="M858.821 559.053C869.7 544.392 882.653 530.973 894.593 517.168C903.374 507.016 915.052 491.435 924.966 483.416C926.29 503.319 926.426 523.229 925.375 543.148C920.225 625.43 890.515 706.219 835.511 768.231C827.794 776.759 819.638 784.845 811.044 792.488C800.403 769.407 784.841 752.19 760.403 743.272C743.076 736.949 721.913 738.536 705.319 746.356C687.112 754.937 674.111 770.999 667.497 789.707C666.457 792.65 665.53 795.67 664.395 798.575C655.016 797.197 647.022 798.659 639.298 804.34C632.177 809.577 627.976 817.288 626.704 825.969C625.912 831.375 626.604 836.211 627.992 841.457C615.898 845.602 607.71 853.934 602.142 865.343C594.664 880.665 594.729 897.212 600.176 913.159C587.561 915.978 574.837 918.167 562.004 919.726C559.316 920.057 556.625 920.362 553.931 920.639C551.238 920.916 548.541 921.167 545.842 921.39C543.143 921.613 540.443 921.81 537.74 921.98C535.037 922.149 532.333 922.292 529.627 922.408C526.921 922.523 524.215 922.612 521.507 922.674C518.8 922.735 516.092 922.77 513.384 922.777C510.676 922.785 507.968 922.766 505.26 922.719C502.552 922.672 499.845 922.599 497.139 922.498C494.433 922.397 491.728 922.27 489.024 922.115C486.32 921.96 483.618 921.779 480.918 921.57C478.218 921.362 475.521 921.127 472.825 920.864C470.13 920.601 467.437 920.312 464.747 919.996C462.058 919.68 459.372 919.337 456.689 918.967C454.006 918.597 451.327 918.2 448.652 917.777C445.978 917.354 443.307 916.904 440.641 916.427C437.975 915.95 435.314 915.447 432.658 914.918C430.003 914.388 427.353 913.832 424.707 913.249C422.063 912.666 419.424 912.057 416.792 911.422C414.16 910.787 411.534 910.125 408.914 909.437C406.295 908.75 403.683 908.036 401.077 907.296C398.472 906.556 395.875 905.79 393.285 904.998C390.695 904.206 388.114 903.388 385.54 902.545C382.966 901.702 380.401 900.833 377.845 899.938C375.289 899.043 372.742 898.123 370.204 897.178C367.667 896.233 365.139 895.262 362.62 894.266C360.102 893.27 357.594 892.249 355.096 891.203C352.598 890.157 350.111 889.086 347.634 887.991C345.158 886.895 342.692 885.775 340.237 884.63C337.783 883.485 335.341 882.316 332.91 881.122C330.479 879.929 328.06 878.711 325.653 877.469C323.247 876.227 320.854 874.961 318.472 873.671C316.091 872.382 313.723 871.068 311.367 869.731C288.516 856.462 267.919 840.556 247.158 824.344C253.17 823.497 260.233 824.274 266.376 824.255C280.938 824.21 295.533 823.941 310.092 824.211C313.27 823.194 316.626 820.888 319.157 818.716C319.508 818.411 319.851 818.098 320.186 817.777C320.521 817.455 320.848 817.125 321.166 816.787C321.485 816.449 321.795 816.103 322.096 815.75C322.398 815.397 322.69 815.036 322.973 814.668C323.257 814.3 323.531 813.925 323.795 813.544C324.06 813.162 324.315 812.774 324.56 812.38C324.806 811.985 325.041 811.585 325.266 811.179C325.492 810.773 325.707 810.361 325.911 809.944C326.117 809.527 326.311 809.106 326.494 808.679C326.678 808.252 326.851 807.821 327.013 807.386C327.176 806.951 327.327 806.512 327.467 806.069C327.608 805.626 327.737 805.18 327.855 804.731C327.973 804.282 328.08 803.831 328.175 803.376C328.271 802.921 328.355 802.465 328.428 802.006C328.501 801.547 328.562 801.087 328.611 800.625C328.661 800.164 328.7 799.701 328.726 799.237C329.413 788.478 324.385 780.324 317.432 772.663C312.655 769.482 308.193 767.295 302.604 765.976C312.451 756.674 323.658 747.815 334.598 739.82C342.31 757.413 352.276 773.974 361.243 790.93C367.724 803.187 373.209 816.017 380.053 828.068C389.831 819.249 399.772 810.618 409.875 802.175C412.714 807.506 416.333 812.547 419.598 817.634C425.062 826.313 430.67 834.898 436.423 843.389C443.163 836.401 449.255 828.401 455.614 821.024L496.455 773.362C508.709 758.844 521.886 745.112 534.504 730.912C543.737 740.316 551.308 751.298 560.512 760.758C604.536 713.181 648.101 665.189 691.208 616.78C701.013 628.189 709.646 640.664 718.51 652.803C723.986 647.378 728.684 640.978 733.73 635.138C743.576 623.747 753.908 612.312 764.788 601.9L766.199 598.982C807.197 599.603 848.21 598.987 889.206 599.523C888.682 589.934 885.755 580.497 880.081 572.69C874.767 565.379 867.822 560.483 858.821 559.053Z" fill="#E82A1A"/>
<path d="M317.432 772.663C324.08 774.014 329.116 777.094 332.983 782.804C333.257 783.209 333.522 783.621 333.776 784.04C334.03 784.459 334.273 784.884 334.505 785.315C334.737 785.746 334.959 786.183 335.169 786.626C335.379 787.068 335.577 787.515 335.765 787.968C335.953 788.421 336.129 788.878 336.293 789.339C336.457 789.8 336.609 790.266 336.75 790.735C336.89 791.204 337.019 791.676 337.136 792.152C337.252 792.627 337.357 793.106 337.45 793.587C337.542 794.068 337.622 794.551 337.69 795.036C337.758 795.521 337.813 796.007 337.857 796.495C337.9 796.983 337.931 797.472 337.95 797.961C337.968 798.45 337.974 798.94 337.968 799.43C337.961 799.919 337.942 800.408 337.911 800.897C337.879 801.386 337.836 801.874 337.78 802.36C337.724 802.847 337.655 803.332 337.575 803.815C337.494 804.298 337.401 804.778 337.297 805.257C335.898 811.688 331.944 817.95 326.229 821.368C321.79 824.022 315.226 825.301 310.092 824.211C313.27 823.194 316.626 820.888 319.157 818.716C319.507 818.411 319.85 818.098 320.186 817.777C320.52 817.455 320.847 817.125 321.166 816.787C321.484 816.449 321.794 816.103 322.096 815.75C322.397 815.397 322.689 815.036 322.973 814.668C323.256 814.3 323.53 813.925 323.795 813.544C324.059 813.162 324.314 812.774 324.56 812.38C324.805 811.985 325.04 811.585 325.266 811.179C325.491 810.773 325.706 810.361 325.911 809.944C326.116 809.527 326.31 809.106 326.494 808.679C326.678 808.252 326.851 807.821 327.013 807.386C327.175 806.951 327.327 806.512 327.467 806.069C327.607 805.626 327.737 805.18 327.855 804.731C327.973 804.282 328.079 803.831 328.175 803.376C328.27 802.921 328.354 802.465 328.428 802.006C328.5 801.547 328.561 801.087 328.611 800.625C328.661 800.164 328.699 799.701 328.726 799.237C329.413 788.478 324.385 780.324 317.432 772.663Z" fill="#BB0901"/>
<path d="M766.199 598.982C807.197 599.603 848.21 598.987 889.206 599.523L899.009 599.549C899.12 604.493 899.334 609.432 899.652 614.367L762.222 614.559C762.607 610.247 763.748 606.089 764.788 601.9L766.199 598.982Z" fill="#BB0901"/>
<path d="M140.53 696.374C131.073 679.318 122.49 655.665 116.943 636.837C98.5626 574.442 92.7878 508.915 104.951 444.651C109.856 418.738 117.999 388.558 127.554 364.035C128.495 361.646 129.458 359.265 130.443 356.894C131.428 354.523 132.434 352.161 133.463 349.808C134.492 347.455 135.542 345.112 136.613 342.779C137.685 340.446 138.778 338.122 139.893 335.809C141.007 333.496 142.143 331.193 143.3 328.901C144.457 326.608 145.635 324.327 146.834 322.056C148.033 319.785 149.252 317.526 150.493 315.278C151.734 313.03 152.995 310.794 154.277 308.569C155.559 306.344 156.861 304.131 158.184 301.93C159.507 299.729 160.85 297.541 162.213 295.365C163.576 293.188 164.959 291.025 166.362 288.874C167.765 286.724 169.187 284.587 170.63 282.462C172.072 280.337 173.534 278.226 175.015 276.129C176.496 274.032 177.997 271.948 179.517 269.878C181.036 267.809 182.575 265.753 184.132 263.712C185.69 261.671 187.266 259.644 188.861 257.631C190.456 255.619 192.07 253.622 193.701 251.639C195.333 249.656 196.983 247.689 198.651 245.737C200.319 243.784 202.005 241.848 203.709 239.927C205.412 238.006 207.133 236.1 208.872 234.211C210.611 232.322 212.368 230.448 214.141 228.591C215.914 226.734 217.705 224.894 219.512 223.07C221.319 221.246 223.143 219.439 224.984 217.648C226.825 215.858 228.682 214.085 230.555 212.329C232.428 210.573 234.318 208.834 236.223 207.113C238.128 205.392 240.049 203.688 241.986 202.002C243.923 200.316 245.875 198.648 247.843 196.998C249.81 195.348 251.793 193.716 253.79 192.103C255.788 190.49 257.8 188.895 259.827 187.319C261.854 185.743 263.896 184.186 265.952 182.647C268.007 181.108 270.077 179.589 272.161 178.088C274.244 176.588 276.342 175.107 278.453 173.645C372.117 109.889 481.922 87.7941 593.097 108.926C596.293 109.518 599.482 110.15 602.663 110.822C605.844 111.494 609.016 112.206 612.179 112.957C615.342 113.708 618.495 114.498 621.638 115.328C624.781 116.157 627.914 117.026 631.036 117.934C634.157 118.842 637.267 119.789 640.365 120.775C643.463 121.76 646.548 122.784 649.621 123.847C652.694 124.91 655.752 126.01 658.797 127.149C661.842 128.288 664.873 129.464 667.888 130.679C670.903 131.894 673.903 133.146 676.888 134.435C679.872 135.724 682.84 137.051 685.791 138.415C688.742 139.778 691.676 141.178 694.593 142.615C697.509 144.052 700.407 145.525 703.286 147.034C706.166 148.543 709.026 150.087 711.867 151.668C714.708 153.249 717.528 154.864 720.329 156.515C723.13 158.166 725.909 159.851 728.668 161.572C731.427 163.292 734.163 165.046 736.878 166.835C739.593 168.624 742.285 170.446 744.954 172.301C747.623 174.157 750.269 176.046 752.892 177.968C755.514 179.889 758.112 181.843 760.685 183.83C763.258 185.817 765.806 187.835 768.329 189.885C770.852 191.936 773.349 194.017 775.82 196.13C778.291 198.242 780.736 200.385 783.153 202.559C785.571 204.732 787.961 206.936 790.324 209.169C792.686 211.402 795.02 213.665 797.327 215.956C799.633 218.247 801.91 220.567 804.158 222.916C806.406 225.264 808.625 227.64 810.814 230.044C813.003 232.447 815.161 234.878 817.289 237.336C819.418 239.793 821.515 242.277 823.581 244.787C825.647 247.297 827.682 249.832 829.685 252.393C831.688 254.954 833.658 257.539 835.597 260.149C837.535 262.759 839.44 265.393 841.313 268.05C843.186 270.707 845.025 273.388 846.831 276.091C844.046 276.909 841.142 277.682 838.458 278.79C827.489 283.318 818.746 292.918 814.384 303.841C810.596 313.325 810.141 322.929 814.218 332.377C806.326 332.046 799.511 332.673 793.427 338.363C788.873 342.623 785.621 348.878 785.542 355.188C785.486 359.706 787.372 364.325 790.732 367.39C791.783 368.349 793.041 369.104 794.243 369.858C804.657 370.301 815.145 370.043 825.569 370.023L874.225 369.999C881.729 369.992 895.783 369.003 902.387 370.254L904.319 376.639C916.87 414.333 922.1 443.678 924.966 483.416C915.052 491.435 903.374 507.016 894.593 517.168C882.653 530.973 869.7 544.392 858.821 559.053C867.822 560.483 874.767 565.379 880.081 572.69C885.755 580.497 888.682 589.934 889.206 599.523C848.21 598.987 807.197 599.603 766.199 598.982L764.788 601.9C753.908 612.312 743.576 623.747 733.73 635.138C728.684 640.978 723.986 647.378 718.51 652.803C709.646 640.664 701.013 628.189 691.208 616.78C648.101 665.189 604.535 713.181 560.512 760.758C551.308 751.298 543.737 740.316 534.504 730.912C521.886 745.112 508.709 758.844 496.455 773.362L455.614 821.024C449.255 828.401 443.163 836.401 436.423 843.389C430.67 834.898 425.061 826.313 419.598 817.634C416.333 812.547 412.714 807.506 409.875 802.175C399.772 810.618 389.831 819.249 380.053 828.068C373.209 816.017 367.724 803.187 361.243 790.93C352.276 773.974 342.31 757.413 334.598 739.82C323.658 747.815 312.451 756.674 302.604 765.976L298.428 765.93C300.48 755.949 296.208 742.932 291.117 734.418C285.876 725.652 277.329 718.343 267.225 715.981C258.928 714.04 252.801 715.98 245.834 720.337C241.345 708.689 235.799 699.156 226.475 690.625C215.008 680.133 199.069 673.891 183.457 674.681C166.463 675.541 151.723 683.891 140.53 696.374Z" fill="#ED6A5A"/>
<path d="M709.727 186.184C711.842 186.553 713.783 187.788 715.15 189.41C715.511 190.781 715.513 190.714 714.858 191.974C713.262 192.057 711.302 192.342 709.738 192.014C708.679 191.792 708.535 191.513 707.946 190.693C707.947 188.871 708.809 187.707 709.727 186.184Z" fill="white"/>
<path d="M400.915 227.685L401.229 226.943C403.776 220.966 407.313 216.139 413.626 213.787C413.966 213.664 414.309 213.549 414.655 213.443C415 213.337 415.348 213.239 415.699 213.15C416.05 213.061 416.402 212.98 416.757 212.909C417.111 212.838 417.467 212.775 417.825 212.72C418.182 212.666 418.541 212.621 418.901 212.585C419.261 212.548 419.622 212.521 419.983 212.503C420.344 212.484 420.705 212.475 421.067 212.474C421.428 212.473 421.79 212.481 422.151 212.498C422.512 212.515 422.873 212.542 423.233 212.577C423.593 212.612 423.952 212.655 424.31 212.708C424.668 212.761 425.024 212.822 425.379 212.892C425.734 212.963 426.086 213.042 426.437 213.129C426.788 213.217 427.137 213.313 427.483 213.418C427.829 213.523 428.172 213.637 428.513 213.758C428.853 213.88 429.19 214.01 429.525 214.149C429.859 214.288 430.189 214.434 430.516 214.589C437.087 217.68 439.759 223.155 441.941 229.644C447.545 230.037 450.605 232.176 454.908 235.502C449.036 237.785 443.322 240.956 437.389 242.949C426.097 242.306 363.154 245 359.556 243.411C359.214 243.26 358.983 242.929 358.697 242.688C358.434 241.142 358.617 239.835 359.246 238.4C360.021 236.633 361.581 235.094 363.383 234.395C366.549 233.166 369.712 234.144 372.618 235.521L373.207 235.805C373.899 231.458 374.652 228.104 377.965 224.944C378.323 224.609 378.697 224.292 379.088 223.995C379.478 223.697 379.882 223.42 380.3 223.163C380.719 222.906 381.149 222.672 381.591 222.459C382.033 222.246 382.485 222.055 382.946 221.888C383.407 221.721 383.875 221.577 384.351 221.457C384.827 221.337 385.308 221.242 385.793 221.171C386.278 221.1 386.766 221.053 387.257 221.031C387.747 221.009 388.237 221.012 388.727 221.04C393.95 221.319 397.504 224.031 400.915 227.685Z" fill="white"/>
<path d="M278.883 580.641C283.352 580.409 288.315 581.477 292.148 583.794C299.155 588.031 301.653 595.312 303.425 602.831C305.085 601.095 306.948 599.715 309.283 599.047C311.726 598.348 314.165 598.599 316.353 599.911C320.714 602.528 321.863 606.975 323.025 611.549C315.564 611.878 307.974 611.555 300.501 611.554L258.288 611.625L216.247 611.762C217.273 608.455 218.46 605.258 221.683 603.518C225.413 601.505 229.687 602.752 233.464 603.896C234.249 602.055 235.049 600.23 236.037 598.486C238.35 594.399 241.797 590.445 246.541 589.283C252.23 587.891 256.98 590.738 261.661 593.516L261.865 593.11C262.571 591.687 263.258 590.202 264.193 588.91C267.763 583.975 273.064 581.651 278.883 580.641Z" fill="white"/>
<path d="M661.054 157.667C666.161 157.659 671.536 158.968 675.852 161.73C682.488 165.977 684.673 172.181 686.238 179.467C689.227 176.664 692.897 174.031 697.181 174.01C699.897 173.997 702.327 175.084 704.184 177.058C708.125 181.247 707.747 186.709 707.661 192.024C698.984 192.912 689.886 192.383 681.154 192.354C665.891 192.249 650.629 192.275 635.367 192.432C625.83 192.459 616.294 192.402 606.758 192.263C602.367 192.224 597.609 192.621 593.258 192.113C592.107 191.978 591.502 192.125 590.754 191.217C590.77 189.255 591.07 187.506 592.291 185.901C594.205 183.385 597.416 182.379 600.45 182.141C603.577 181.896 605.781 182.762 608.134 184.79C608.273 184.909 608.408 185.031 608.545 185.152C609.212 181.74 610.087 178.658 611.946 175.679C614.552 171.505 618.308 168.112 623.259 167.159C629.232 166.01 634.69 168.274 639.569 171.503C645.32 163.709 651.342 159.246 661.054 157.667Z" fill="white"/>
<path d="M364.728 757.469C376.432 749.706 387.966 741.697 399.33 733.443C406.177 728.537 418.63 717.872 426.014 715.308C429.435 715.458 434.06 721.175 436.551 723.515L438.325 723.162C442.694 725.359 445.848 730.463 449.709 733.58L449.811 736.513C451.948 738.419 454.468 740.37 454.68 743.462C454.792 745.1 454.175 747.141 453.031 748.332C448.149 753.415 430.449 762.077 423.558 766.134C412.322 772.747 401.393 779.84 390.094 786.358C389.168 786.903 388.223 787.476 387.235 787.901C385.467 788.661 383.264 789.021 381.491 788.142C380.591 787.696 379.941 786.712 379.675 785.748C378.415 781.18 381.437 776.844 383.633 773.145C376.461 769.28 370.496 763.141 364.728 757.469Z" fill="white"/>
<path d="M436.551 723.515L438.325 723.162C442.694 725.359 445.848 730.463 449.709 733.58L449.811 736.513C447.812 734.84 446.011 731.307 443.595 730.684C442.679 731.143 442.244 731.328 441.201 731.459C439.132 730.465 437.643 728.508 436.097 726.849L434.924 724.79L436.551 723.515Z" fill="#126FCC"/>
<path d="M431.207 731.432C430.684 730.107 430.392 729.468 430.654 728.015C431.577 726.436 433.376 725.668 434.924 724.79L436.097 726.849C435.874 732.093 440.395 734.372 437.898 739.841C435.788 737.125 433.711 733.774 431.207 731.432Z" fill="#1380DD"/>
<path d="M435.822 743L435.407 743.429C435.331 744.576 435.029 745.151 434.439 746.128C433.404 746.567 433.452 746.69 432.27 746.48C428.703 743.199 425.391 737.88 423.696 733.336C423.135 731.831 422.598 730.23 423.317 728.703C423.99 728.415 424.154 728.217 424.924 728.374C426.857 728.77 427.854 730.059 428.976 731.538C430.439 734.706 435.252 740.133 435.822 743Z" fill="#1380DD"/>
<path d="M583.96 604.797C587.735 603.983 591.572 602.98 595.427 602.687C585.423 612.263 575.106 621.411 564.933 630.796C558.538 636.696 552.376 642.851 545.928 648.692L485.426 702.698C480.619 706.934 452.096 730.244 450.482 733.292L449.709 733.58C445.848 730.463 442.694 725.359 438.325 723.162C439.426 717.239 442.723 711.216 444.609 705.425C453.542 677.999 464.175 651.196 473.66 623.957L473.885 623.704C476.107 623.121 478.429 622.883 480.701 622.557C478.817 629.838 475.764 637.177 473.214 644.267L457.644 687.528C453.85 697.855 449.516 708.138 446.831 718.827C452.525 709.925 457.044 700.313 462.418 691.219C468.452 681.009 474.881 671.045 480.869 660.8C488.939 646.753 496.811 632.596 504.486 618.33L504.822 618.12C507.396 617.938 509.992 617.438 512.548 617.064C508.817 625.781 503 634.267 498.3 642.529C494.173 649.782 490.536 657.324 486.275 664.495C477.034 680.044 467.17 695.235 458.287 710.999C467.675 701.12 475.956 689.861 484.808 679.471C489.511 673.949 494.442 668.606 499.044 663C504.939 655.82 510.566 648.422 516.574 641.332C524.702 631.741 533.212 622.535 541.079 612.713L542.193 611.738C545.079 611.385 547.876 610.815 550.796 610.786C543.493 618.719 536.888 627.483 529.9 635.712C508.366 661.071 487.355 686.759 465.199 711.595C473.725 706.476 490.862 689.296 498.896 681.904L552.126 633.555C562.141 624.354 571.625 614.611 582.011 605.817L583.96 604.797Z" fill="#FCC2BA"/>
<path d="M198.331 450.579C198.494 447.815 198.914 445.008 199.882 442.405C200.04 441.991 200.209 441.581 200.388 441.176C200.567 440.771 200.755 440.37 200.954 439.974C201.153 439.578 201.361 439.187 201.579 438.802C201.798 438.417 202.026 438.037 202.263 437.662C202.5 437.288 202.747 436.92 203.002 436.558C203.258 436.197 203.523 435.842 203.796 435.493C204.069 435.144 204.351 434.803 204.642 434.468C204.932 434.133 205.231 433.806 205.538 433.487C205.845 433.167 206.159 432.855 206.482 432.551C206.804 432.248 207.134 431.952 207.471 431.664C207.808 431.377 208.152 431.098 208.503 430.828C208.854 430.558 209.212 430.297 209.576 430.044C209.941 429.792 210.311 429.549 210.687 429.315C211.064 429.081 211.446 428.857 211.833 428.642C212.22 428.427 212.613 428.222 213.011 428.027C213.408 427.832 213.811 427.647 214.218 427.472C220.269 424.818 227.129 424.283 233.291 426.905C240.73 430.071 245.069 436.783 247.97 443.982C248.791 443.356 249.623 442.765 250.478 442.187C256.697 437.987 263.966 436.059 271.409 437.693C282.171 440.056 289.938 449.114 295.647 457.959C299.389 465.801 300.791 471.774 301.362 480.438C260.298 478.929 218.998 479.564 177.914 479.986L160.467 479.955C159.99 471.875 160.432 464.573 164.79 457.501C168.205 451.96 173.532 447.938 179.94 446.586C186.95 445.106 192.466 446.913 198.331 450.579Z" fill="white"/>
<path d="M784.358 560.849C784.939 561.118 784.605 561.04 785.378 560.984C786.983 557.677 787.913 554.035 789.699 550.824C793.714 543.606 801.252 538.324 809.117 536.12C809.676 535.967 810.239 535.827 810.805 535.701C811.371 535.574 811.94 535.462 812.511 535.364C813.082 535.265 813.656 535.181 814.231 535.11C814.806 535.039 815.383 534.983 815.962 534.94C816.54 534.897 817.119 534.869 817.699 534.855C818.278 534.84 818.858 534.84 819.438 534.854C820.017 534.867 820.596 534.895 821.175 534.937C821.753 534.979 822.33 535.035 822.906 535.105C823.481 535.175 824.055 535.259 824.627 535.357C825.198 535.455 825.767 535.567 826.333 535.692C826.899 535.817 827.462 535.956 828.021 536.109C828.58 536.262 829.136 536.429 829.687 536.609C830.238 536.788 830.785 536.981 831.327 537.188C831.868 537.395 832.405 537.614 832.936 537.846C833.467 538.079 833.993 538.324 834.512 538.582C835.031 538.84 835.544 539.111 836.05 539.394C845.329 544.693 848.824 552.662 851.438 562.461C853.866 561.114 856.225 560.03 858.821 559.053C867.822 560.483 874.767 565.379 880.081 572.69C885.755 580.497 888.682 589.934 889.206 599.523C848.21 598.987 807.197 599.603 766.199 598.982C759.037 598.713 751.797 599.045 744.629 599.177C744.557 590.787 746.004 582.907 749.181 575.164C753.061 568.971 757.565 563.914 764.294 560.749C771.376 557.419 777.316 558.281 784.358 560.849Z" fill="white"/>
<path d="M704.633 324.611L705.53 326.372C707.48 341.95 711.326 357.638 714.338 373.074C718.44 394.104 722.088 415.446 726.981 436.298C731.374 457.915 735.905 479.504 740.573 501.064C742.598 510.553 744.073 520.459 746.607 529.809C727.235 533.823 707.776 537.357 688.229 540.411C677.867 542.119 667.377 543.561 657.12 545.794C651.514 546.768 645.654 547.412 640.134 548.705C634.735 549.555 628.966 550.872 623.533 551.175C613.888 553.104 604.223 555.302 594.524 556.917C590.592 557.449 586.515 557.797 582.66 558.731C568.183 561.276 553.533 563.506 539.174 566.649C536.107 567.131 532.6 567.351 529.644 568.216L499.28 573.854L490.593 575.256L413.43 588.874C402.81 590.737 392.108 593.35 381.432 594.728C376.23 595.521 365.248 598.162 360.532 597.366L359.882 596.468C357.63 584.284 356.385 571.858 354.375 559.619C348.223 520.058 341.473 480.598 334.126 441.241C331.488 426.631 329.299 411.904 326.26 397.374C325.596 395.728 324.493 393.985 324.885 392.247L326.448 392.233C332.28 393.421 338.078 395.496 343.797 397.169C353.778 400.078 363.777 402.925 373.793 405.71L490.293 438.856C503.547 442.688 516.746 448.209 530.206 451.047C535.696 448.245 540.31 444.146 545.262 440.515L570.881 422.017C603.159 398.235 635.166 374.106 667.891 350.945L689.959 335.263C694.5 332.029 698.992 328.547 703.847 325.801L704.633 324.611Z" fill="#1380DD"/>
<path d="M326.26 397.374C325.596 395.728 324.493 393.985 324.885 392.247L326.448 392.233C335.495 397.232 359.582 404.205 370.152 407.63C406.393 419.377 443.4 429.921 479.249 442.741C470.191 452.21 461.49 461.997 453.147 472.101C440.152 465.331 427.991 456.854 415.405 449.364C394.706 437.045 373.57 425.325 352.708 413.273C344.166 408.338 335.477 400.711 326.26 397.374Z" fill="white"/>
<path d="M704.398 326.868C704.879 327.94 705.004 328.183 704.594 329.368C700.901 340.039 621.123 434.362 609.878 446.42C597.905 439.599 585.8 433.021 573.563 426.688L665.711 356.285C672.33 351.195 678.895 346.037 685.407 340.81C691.242 336.105 697.545 330.006 704.398 326.868Z" fill="white"/>
<path d="M326.26 397.374C335.477 400.711 344.166 408.338 352.708 413.273C373.57 425.325 394.706 437.045 415.405 449.364C427.991 456.854 440.152 465.331 453.147 472.101C446.174 480.942 438.582 489.369 431.381 498.035C417.881 514.283 404.992 530.759 392.361 547.688C380.773 563.219 369.04 579.342 359.882 596.468C357.63 584.284 356.385 571.858 354.375 559.619C348.223 520.058 341.473 480.598 334.126 441.241C331.488 426.631 329.299 411.904 326.26 397.374Z" fill="#92E3E8"/>
<path d="M704.633 324.611L705.53 326.372C707.48 341.95 711.326 357.638 714.338 373.074C718.44 394.104 722.088 415.446 726.981 436.298C731.374 457.915 735.905 479.504 740.573 501.064C742.598 510.553 744.073 520.459 746.607 529.809C727.235 533.823 707.776 537.357 688.229 540.411C677.867 542.119 667.377 543.561 657.12 545.794C651.514 546.768 645.654 547.412 640.134 548.705C634.735 549.555 628.966 550.872 623.533 551.175C626.465 548.401 632.835 547.006 636.643 545.504C654.444 538.482 680 529.595 692.685 514.826C686.726 504.688 675.976 496.717 666.563 489.993C663.309 487.668 659.313 485.37 656.717 482.359C664.522 485.013 672.549 490.576 679.665 494.717C693.124 502.51 706.773 509.956 720.612 517.053C727.808 520.796 735.86 525.706 743.668 527.848L743.916 527.431C699.584 499.828 655.524 471.823 609.878 446.42C621.123 434.362 700.901 340.039 704.594 329.368C705.004 328.183 704.879 327.94 704.398 326.868L703.847 325.801L704.633 324.611Z" fill="#51C4D5"/>
<path d="M568.515 431.458C578.901 436.418 588.548 442.603 598.442 448.446L630.315 466.901C639.115 472.067 647.751 477.479 656.717 482.359C659.313 485.37 663.309 487.668 666.563 489.993C675.976 496.717 686.726 504.688 692.685 514.826C680 529.595 654.444 538.482 636.643 545.504C632.835 547.006 626.465 548.401 623.533 551.175C613.888 553.104 604.223 555.302 594.524 556.917C590.592 557.449 586.515 557.797 582.66 558.731C568.183 561.276 553.533 563.506 539.174 566.649C536.107 567.131 532.6 567.351 529.644 568.216L499.28 573.854L490.593 575.256L413.43 588.874C402.81 590.737 392.108 593.35 381.432 594.728C376.23 595.521 365.248 598.162 360.532 597.366C363.858 592.088 368.156 587.164 372.022 582.27C378.384 574.169 384.803 566.115 391.281 558.107C412.873 531.474 434.813 505.13 457.101 479.077C466.573 467.812 476.292 456.748 485.47 445.237C500.645 449.625 514.953 456.515 530.311 460.421C541.075 455.05 557.816 439.35 568.515 431.458Z" fill="#92E3E8"/>
<path d="M454.908 235.502C493.678 222.02 529.478 218.725 569.973 227.07C581.377 229.42 593.65 232.546 604.104 237.739L604.957 238.172C624.245 247.18 641.562 257.718 658.062 271.233C674.4 287.064 689.89 304.815 699.402 325.695L704.633 324.611L703.847 325.801C698.992 328.547 694.5 332.029 689.959 335.263L667.891 350.945C635.166 374.106 603.159 398.235 570.881 422.017L545.262 440.515C540.31 444.146 535.696 448.245 530.206 451.047C516.746 448.209 503.547 442.688 490.293 438.856L373.793 405.71C363.777 402.925 353.778 400.078 343.797 397.169C338.078 395.496 332.28 393.421 326.448 392.233L324.65 390.531C325.741 389.787 326.738 389.917 328.03 389.812L328.772 390.218L329.922 389.471L329.412 389.659L329.657 389.276C314.267 388.261 298.583 388.576 283.16 388.595L199.36 388.996C195.958 378.002 195.491 367.691 201.043 357.274C205.641 348.646 213.498 341.855 222.926 339.085C234.376 335.72 242.721 339.415 252.688 344.811C252.188 343.605 251.72 342.392 251.398 341.125C249.535 333.799 250.981 325.95 254.848 319.522C259.955 311.031 269.516 306.031 278.893 303.782C291.05 300.865 303.598 303.246 314.195 309.779C323.134 315.291 327.531 322.915 329.885 332.981C336.748 327.735 343.228 326.868 351.624 327.46C367.899 297.194 389.427 273.112 418.191 254.202C424.38 250.133 431.102 246.885 437.389 242.949C443.322 240.956 449.036 237.785 454.908 235.502Z" fill="white"/>
<path d="M604.957 238.172C624.245 247.18 641.562 257.718 658.062 271.233C674.4 287.064 689.89 304.815 699.402 325.695C619.63 342.006 539.617 357.028 459.361 370.762C434.894 374.571 410.396 378.175 385.868 381.575C368.085 383.86 350.063 385.268 332.513 389.001C334.535 369.262 340.281 351.468 348.661 333.58C355.584 335.374 363.302 340.63 370.165 343.338C373.101 344.467 376.064 345.515 379.056 346.484C382.048 347.453 385.064 348.34 388.104 349.145C391.144 349.951 394.204 350.674 397.282 351.315C400.362 351.956 403.456 352.514 406.564 352.987C409.673 353.461 412.792 353.851 415.922 354.156C419.052 354.461 422.188 354.682 425.33 354.819C428.472 354.955 431.616 355.006 434.76 354.973C437.905 354.94 441.047 354.822 444.185 354.619C494.642 351.24 549.437 329.912 583.118 291.153C597.494 274.61 606.51 260.694 604.957 238.172Z" fill="#0424B1"/>
<path d="M454.908 235.502C493.678 222.02 529.478 218.725 569.973 227.07C581.377 229.42 593.65 232.546 604.104 237.739L604.957 238.172C606.51 260.694 597.494 274.61 583.118 291.153C549.437 329.912 494.642 351.24 444.185 354.619C441.046 354.822 437.905 354.94 434.76 354.973C431.615 355.006 428.472 354.955 425.33 354.819C422.188 354.682 419.052 354.461 415.922 354.156C412.792 353.851 409.673 353.461 406.564 352.987C403.455 352.514 400.361 351.956 397.282 351.315C394.203 350.674 391.144 349.951 388.104 349.145C385.064 348.34 382.048 347.453 379.056 346.484C376.064 345.515 373.1 344.467 370.165 343.338C363.302 340.63 355.584 335.374 348.661 333.58L351.624 327.46C367.899 297.194 389.427 273.112 418.191 254.202C424.38 250.133 431.102 246.885 437.389 242.949C443.322 240.956 449.036 237.785 454.908 235.502Z" fill="#1380DD"/>
<path d="M391.526 312.58C394.191 312.386 396.85 312.483 399.518 312.538C401.226 313.71 402.748 315.002 403.759 316.848C405.225 319.526 405.332 322.684 404.382 325.549C402.784 330.367 399.179 333.453 394.847 335.78C392.325 336.36 390.09 336.823 387.581 335.913C385.278 335.078 383.485 333.458 382.463 331.23C381.067 328.188 381.158 324.468 382.353 321.378C384.152 316.727 387.173 314.525 391.526 312.58Z" fill="#5AC2ED"/>
<path d="M464.666 244.174C470.615 243.185 479.86 243.373 485.073 246.689C487.878 248.474 490.165 251.834 490.696 255.124C491.444 259.754 489.042 264.134 486.452 267.786C474.148 285.133 444.954 298.921 424.438 302.356C417.843 303.531 408.029 304.607 402.15 300.688C400.462 299.563 399.356 297.896 399.045 295.885C398.276 290.912 401.421 285.631 404.262 281.759C416.793 264.679 443.654 247.267 464.666 244.174Z" fill="#5AC2ED"/>
</g>
<defs>
<clipPath id="clip0_579_82">
<rect width="1024" height="1024" fill="white"/>
</clipPath>
</defs>
</svg>
